<?xml version="1.0" encoding="UTF-8"?>
<svg id="Capa_1" data-name="Capa 1" xmlns="http://www.w3.org/2000/svg" xmlns:xlink="http://www.w3.org/1999/xlink" viewBox="0 0 392.34 95.39">
  <defs>
    <style>
      .cls-1 {
        fill: url(#linear-gradient);
      }

      .cls-2, .cls-3 {
        fill: #202f43;
      }

      .cls-3 {
        font-family: Zodiak-Bold, 'OFEBY Q+ Zodiak';
        font-size: 40.03px;
        font-weight: 700;
      }
    </style>
    <linearGradient id="linear-gradient" x1="76.39" y1="39.5" x2="154.44" y2="39.5" gradientUnits="userSpaceOnUse">
      <stop offset="0" stop-color="#f4bf6a"/>
      <stop offset="0" stop-color="#d29e4a"/>
      <stop offset=".26" stop-color="#b83"/>
      <stop offset=".69" stop-color="#ffff81"/>
      <stop offset="1" stop-color="#905c00"/>
    </linearGradient>
  </defs>
  <text class="cls-3" transform="translate(163.05 78.4)"><tspan x="0" y="0">IMPULSA</tspan></text>
  <g>
    <path class="cls-2" d="M61.38,7.13c-12.64.37-24.09,7.23-29.77,18.01-5.58,10.6-4.23,22.39-.75,29.77,2.03,4.32,4.94,7.43,5.25,7.75,4.31,4.54,8.95,6.44,11.01,7.25,1.7.67,10.85,4.13,21.51,1,4.02-1.18,6.93-2.9,8.26-3.75,4.34-2.78,6.9-5.91,7.75-7,2.26-2.91,3.39-5.48,4.5-8.01,1.25-2.84,1.94-5.17,3-8.76.79-2.67,1.37-4.91,1.75-6.5.52-3.64,1.87-9.65,5.75-16.01,4.69-7.68,10.72-11.99,14.01-14.01l-52.28.25ZM82.48,40.62c-.07,3.33-.91,16.95-11.41,23.42-1.27.78-5.7,3.44-11.69,3.11-9.89-.54-15.67-8.74-16.92-10.5-4.85-6.87-4.75-14.07-4.7-18.03.09-6.79,2.15-11.63,2.73-12.91,1.26-2.82,2.82-6.3,6.53-9.27.91-.73,6.68-5.21,14.71-4.41.86.09,4.57.52,8.48,2.89,8.77,5.3,12.46,16.62,12.26,25.69Z"/>
    <path class="cls-1" d="M140.05,21.01l6-6c-1.72-1.54-9.55-8.21-20.89-7.63-11.24.58-19.52,7.96-23.14,13.88-1.11,1.82-2.8,5.18-4.13,9.13-.52,1.54-.6,2.03-2.5,9.51-1.71,6.72-1.99,7.65-2.25,8.51-1.23,3.96-1.88,6.07-3.25,8.76-2.6,5.08-5.78,8.36-7.25,9.76-2.34,2.23-4.59,3.76-6.25,4.75h53.03c2.56-.03,5.99-.39,9.76-1.75,8.68-3.14,13.46-9.54,15.26-12.26l-6.25-6.25c-3.91,7.86-12,12.69-20.51,12.26-10.05-.51-16.57-8.17-19.01-14.01-1.73-4.14-1.74-8.16-1.75-10.51,0-3.09-.02-7.71,2.5-12.51.81-1.54,4.68-8.91,13.26-10.76,9.53-2.05,16.72,4.5,17.39,5.13Z"/>
  </g>
</svg>